<?xml version="1.0" encoding="UTF-8"?>
<svg id="Layer_1" data-name="Layer 1" xmlns="http://www.w3.org/2000/svg" xmlns:xlink="http://www.w3.org/1999/xlink" viewBox="0 0 449.13 151.92">
  <defs>
    <style>
      .cls-1 {
        fill: url(#logo2-2);
      }

      .cls-1, .cls-2, .cls-3, .cls-4, .cls-5, .cls-6, .cls-7 {
        stroke-width: 0px;
      }

      .cls-2 {
        fill: url(#logo2-4);
      }

      .cls-3 {
        fill: url(#logo2-5);
      }

      .cls-4 {
        fill: url(#logo2-3);
      }

      .cls-5 {
        fill: #34679a;
      }

      .cls-6 {
        fill: #14c5ed;
      }

      .cls-7 {
        fill: url(#logo2);
      }
    </style>
    <linearGradient id="logo2" x1="3.23" y1="19.88" x2="147.22" y2="19.88" gradientUnits="userSpaceOnUse">
      <stop offset="0" stop-color="#14c5ed"/>
      <stop offset="1" stop-color="#34679a"/>
    </linearGradient>
    <linearGradient id="logo2-2" data-name="logo2" x1="3.23" y1="73.58" x2="147.22" y2="73.58" xlink:href="#logo2"/>
    <linearGradient id="logo2-3" data-name="logo2" x1="3.23" y1="101.37" x2="147.22" y2="101.37" xlink:href="#logo2"/>
    <linearGradient id="logo2-4" data-name="logo2" x1="3.23" y1="80.06" x2="147.22" y2="80.06" xlink:href="#logo2"/>
    <linearGradient id="logo2-5" data-name="logo2" x1="3.23" y1="43.96" x2="147.22" y2="43.96" xlink:href="#logo2"/>
  </defs>
  <g>
    <path class="cls-6" d="m218.28,93.58c0,.97-.3,1.89-.9,2.76-.6.87-1.36,1.56-2.28,2.07-1.61,1.01-3.35,1.72-5.21,2.14-1.86.41-3.9.62-6.11.62-6.03,0-11.13-2.02-15.32-6.07-2.48-2.3-4.32-5.29-5.52-8.97-1.01-3.13-1.52-6.67-1.52-10.63,0-6.58,2.13-12.02,6.38-16.32,4.25-4.3,9.72-6.45,16.39-6.45,3.08,0,5.91.48,8.49,1.45,3.45,1.29,5.17,3.2,5.17,5.73,0,1.43-.35,2.61-1.03,3.55-.69.94-1.72,1.41-3.1,1.41-.6,0-1.17-.09-1.72-.28-.55-.18-1.27-.46-2.14-.83-1.93-.74-3.73-1.1-5.38-1.1-3.96,0-6.97,1.38-9.04,4.14-1.89,2.48-2.83,5.8-2.83,9.94,0,2.44.29,4.61.86,6.52.57,1.91,1.62,3.6,3.14,5.07,2.07,1.93,4.65,2.9,7.73,2.9.78,0,1.53-.05,2.24-.14.71-.09,1.39-.28,2.04-.55l3.04-1.52c.69-.28,1.38-.41,2.07-.41h.41c1.24,0,2.24.49,3,1.48.76.99,1.14,2.15,1.14,3.48Z"/>
    <path class="cls-6" d="m251.54,95.27c0,1.42-.49,2.55-1.48,3.39-.99.85-2.24,1.27-3.76,1.27h-14.9c-2.07,0-3.69-.59-4.86-1.76-1.17-1.17-1.76-2.79-1.76-4.86v-34.22c0-1.66.48-3.06,1.44-4.21.96-1.15,2.26-1.72,3.91-1.72s2.87.56,3.8,1.69c.94,1.13,1.41,2.55,1.41,4.25v31.38h10.95c1.57,0,2.84.41,3.81,1.23.97.82,1.46,2.01,1.46,3.56Z"/>
    <path class="cls-6" d="m266.09,94.68c0,1.66-.47,3.06-1.41,4.21-.94,1.15-2.2,1.72-3.8,1.72-1.69,0-3.01-.56-3.94-1.69s-1.4-2.54-1.4-4.24v-35.6c0-1.66.48-3.06,1.44-4.21.96-1.15,2.26-1.72,3.91-1.72s2.87.56,3.8,1.69c.94,1.13,1.41,2.54,1.41,4.24v35.6Z"/>
    <path class="cls-6" d="m315.98,94.55c0,.92-.1,1.74-.31,2.45-.21.71-.57,1.37-1.07,1.97-.97,1.1-2.17,1.66-3.6,1.66-1.8,0-3.18-.69-4.15-2.07l-20.88-26.49v22.63c0,1.66-.47,3.06-1.41,4.21-.94,1.15-2.2,1.72-3.8,1.72-1.69,0-3.01-.56-3.94-1.69s-1.4-2.54-1.4-4.24v-36.01c0-1.56.48-2.87,1.45-3.93.97-1.06,2.24-1.59,3.8-1.59,1.66,0,3.13.78,4.43,2.35l20.33,25.67v-22.08c0-1.66.48-3.06,1.44-4.21.96-1.15,2.26-1.72,3.91-1.72s2.87.56,3.8,1.69c.94,1.13,1.41,2.54,1.41,4.24v35.46Z"/>
    <path class="cls-6" d="m335.78,94.68c0,1.66-.47,3.06-1.41,4.21-.94,1.15-2.2,1.72-3.8,1.72-1.69,0-3.01-.56-3.94-1.69-.94-1.13-1.4-2.54-1.4-4.24v-35.6c0-1.66.48-3.06,1.44-4.21.96-1.15,2.26-1.72,3.91-1.72s2.87.56,3.8,1.69c.94,1.13,1.41,2.54,1.41,4.24v35.6Z"/>
    <path class="cls-5" d="m375.24,58.64c0,1.42-.49,2.55-1.48,3.39-.99.85-2.24,1.27-3.76,1.27h-6.07v31.38c0,1.66-.46,3.06-1.37,4.22s-2.19,1.73-3.84,1.73-3.01-.56-3.94-1.69c-.94-1.13-1.4-2.55-1.4-4.25v-31.38h-6.21c-1.56,0-2.83-.4-3.79-1.2-.97-.8-1.45-1.95-1.45-3.46s.5-2.63,1.51-3.49c1.01-.87,2.25-1.3,3.72-1.3h22.86c1.56,0,2.82.41,3.79,1.23.96.82,1.45,2.01,1.45,3.56Z"/>
    <path class="cls-5" d="m407.74,95.27c0,1.42-.49,2.55-1.48,3.39-.99.85-2.24,1.27-3.76,1.27h-15.04c-2.07,0-3.67-.56-4.79-1.69-1.13-1.13-1.69-2.73-1.69-4.79v-33.12c0-2.02.55-3.61,1.66-4.76,1.1-1.15,2.71-1.72,4.83-1.72h15.04c1.56,0,2.83.41,3.79,1.23.97.82,1.45,2.01,1.45,3.56,0,1.42-.5,2.55-1.49,3.39-.99.85-2.25,1.27-3.78,1.27h-10.95v8.76h9.84c1.57,0,2.84.41,3.81,1.23.97.82,1.46,2.01,1.46,3.56,0,1.42-.5,2.55-1.49,3.39-.99.85-2.25,1.27-3.78,1.27h-9.84v8.97h10.95c1.57,0,2.84.41,3.81,1.23.97.82,1.46,2.01,1.46,3.56Z"/>
    <path class="cls-5" d="m449.13,95.51c0,1.24-.43,2.4-1.28,3.48-.85,1.08-1.86,1.62-3.01,1.62s-2.11-.17-3.01-.52c-.9-.35-1.65-.95-2.25-1.83l-13.7-17.11v13.52c0,1.66-.47,3.06-1.41,4.21-.94,1.15-2.2,1.72-3.8,1.72-1.69,0-3.01-.56-3.94-1.69-.94-1.13-1.4-2.54-1.4-4.24v-34.36c0-4.23,2.16-6.35,6.49-6.35h10.62c2.21,0,4.25.28,6.14.83,1.89.55,3.61,1.47,5.17,2.76,3.22,2.62,4.83,6.03,4.83,10.21,0,2.02-.28,3.83-.83,5.42-.55,1.59-1.47,3-2.76,4.24-.97.92-2.09,1.66-3.38,2.21-.87.41-2.19.83-3.93,1.24l8.97,9.8c.69.69,1.22,1.3,1.59,1.83.37.53.67,1.16.9,1.9v1.1Zm-10.9-26.91c0-1.56-.6-2.87-1.8-3.93-1.2-1.06-2.59-1.59-4.16-1.59h-6.38v10.76h6.52c1.66,0,3.05-.47,4.16-1.41,1.11-.94,1.67-2.22,1.67-3.83Z"/>
  </g>
  <g>
    <path class="cls-7" d="m15.74,38.72c.97.71,2.09,1.05,3.2,1.05,1.67,0,3.32-.77,4.39-2.23,1.99-2.72,4.21-5.31,6.6-7.71,21.46-21.46,55.56-25.19,81.08-8.88,3.97,2.54,7.68,5.52,11.04,8.88,2.12,2.12,5.56,2.12,7.68,0s2.12-5.56,0-7.68c-3.91-3.91-8.24-7.39-12.86-10.35C87.08-7.22,47.29-2.88,22.25,22.15c-2.79,2.79-5.38,5.81-7.7,8.98-1.77,2.42-1.24,5.82,1.18,7.58Z"/>
    <path class="cls-1" d="m146.42,47.3c-1.13-2.78-4.29-4.12-7.07-2.99-2.78,1.13-4.12,4.29-2.99,7.07,5.77,14.23,6.32,30.13,1.56,44.76-.93,2.85.63,5.91,3.48,6.84.56.18,1.13.27,1.68.27,2.29,0,4.41-1.46,5.16-3.75,5.56-17.06,4.91-35.59-1.82-52.2Z"/>
    <path class="cls-4" d="m111.51,123.24c-2.6,2.6-3.81,6.06-3.68,9.48-.94.53-1.89,1.05-2.85,1.53-25.08,12.46-55.23,7.52-75.05-12.29-2.05-2.05-3.97-4.24-5.71-6.52-6.07-7.92-10.14-16.91-12.1-26.71-2.05-10.24-1.6-20.95,1.29-30.97.83-2.88-.83-5.89-3.71-6.72-2.88-.84-5.89.83-6.72,3.71-3.38,11.68-3.9,24.17-1.51,36.11,2.25,11.28,7.14,22.06,14.12,31.18,2.03,2.65,4.27,5.21,6.66,7.59,14.61,14.61,34.04,22.29,53.75,22.29,11.47,0,23.04-2.6,33.8-7.95,1.02-.51,2.02-1.06,3.02-1.62,2.28,1.74,4.98,2.66,7.71,2.66,3.27,0,6.53-1.24,9.02-3.73t0,0c4.97-4.97,4.97-13.07,0-18.04-4.97-4.97-13.07-4.97-18.04,0Zm11.9,11.9c-1.59,1.59-4.17,1.59-5.76,0-1.59-1.59-1.59-4.17,0-5.76.79-.8,1.84-1.19,2.88-1.19s2.08.4,2.88,1.19c1.59,1.59,1.59,4.17,0,5.76Z"/>
    <path class="cls-2" d="m75.99,124.2c18.16,0,34.62-10.03,42.95-26.18,3.5-6.79,5.35-14.44,5.35-22.12,0-3-2.43-5.43-5.43-5.43s-5.43,2.43-5.43,5.43c0,6.05-1.39,11.81-4.14,17.14-6.46,12.52-19.22,20.31-33.3,20.31-20.65,0-37.45-16.8-37.45-37.45,0-5.06,1.04-9.93,2.98-14.51.39.04.79.06,1.19.06,3.41,0,6.61-1.33,9.02-3.74h0c4.97-4.97,4.97-13.07,0-18.04-2.41-2.41-5.61-3.74-9.02-3.74s-6.61,1.33-9.02,3.74c-2.41,2.41-3.74,5.61-3.74,9.02,0,2.56.75,5,2.13,7.07-2.91,6.33-4.4,13.1-4.4,20.14,0,26.63,21.67,48.3,48.3,48.3ZM39.83,45.8c.77-.77,1.79-1.19,2.88-1.19s2.11.42,2.88,1.19c1.59,1.59,1.59,4.17,0,5.76-1.54,1.54-4.22,1.54-5.76,0-1.59-1.59-1.59-4.17,0-5.76Z"/>
    <path class="cls-3" d="m90.56,41.38c7.61,3.22,14.03,8.96,18.09,16.18,1,1.77,2.84,2.77,4.73,2.77.9,0,1.82-.22,2.66-.7,2.61-1.47,3.54-4.78,2.07-7.39-5.23-9.3-13.51-16.7-23.32-20.86-5.96-2.52-12.29-3.8-18.8-3.8-3,0-5.43,2.43-5.43,5.43s2.43,5.43,5.43,5.43c5.06,0,9.96.99,14.58,2.94Z"/>
  </g>
</svg>